# Blender v2.78 (sub 0) OBJ File: 'BoxScene.blend'
# www.blender.org
mtllib BoxScene.mtl
o Ground
v -1.50000 -0.45500 -1.5000000
v 1.5000 -0.45500 1.5000000
v -1.5000 -0.45500 1.5000000
v 1.5000 -0.455000 -1.5000000
vt 0.0000 0.0000
vt 1.0000 1.0000
vt 0.0000 1.0000
vt 1.0000 0.0000
vn 0.0000 -1.0000 0.0000
usemtl Boden
s off
f 1/1/1 2/2/1 3/3/1
f 1/1/1 4/4/1 2/2/1
o Wall
v -1.5000000 -1.50000000 0.000000
v 1.5000000 1.5000000 0.000000
v -1.5000000 1.5000000 0.000000
v 1.5000000 -1.5000000 0.000000
vt 0.0000 0.0000
vt 1.0000 1.0000
vt 0.0000 1.0000
vt 1.0000 0.0000
vn 0.0000 0.0000 1.0000
usemtl Wand
s off
f 5/1/2 6/2/2 7/3/2
f 5/1/2 8/4/2 6/2/2
o Box
v 0.3150000 -0.2825000 0.1500000
v 0.4650000 -0.1375000 0.1500000
v 0.3150000 -0.1375000 0.1500000
v 0.4650000 -0.2825000 0.1500000
v 0.3150000 -0.2825000 0.0000000
v 0.4650000 -0.1375000 0.0000000
v 0.3150000 -0.1375000 0.0000000
v 0.4650000 -0.2825000 0.0000000
vt 0.0000 0.0000
vt 1.0000 1.0000
vt 0.0000 1.0000
vt 1.0000 0.0000
vn 0.0000 0.0000 1.0000
vn -1.0000 0.0000 0.0000
vn 1.0000 0.0000 0.0000
vn 0.0000 1.0000 0.0000
vn 0.0000 -1.0000 0.0000
usemtl Boxe
s off
f 9/1/3 10/2/3 11/3/3
f 9/1/3 12/4/3 10/2/3
f 13/1/4 9/2/4 11/3/4
f 13/1/4 11/4/4 15/2/4
f 16/1/7 12/2/7 9/3/7
f 16/1/7 9/4/7 13/2/7
f 14/1/5 10/2/5 12/3/5
f 14/1/5 12/4/5 16/2/5
f 15/1/6 11/2/6 10/3/6
f 15/1/6 10/4/6 14/2/6